<svg xmlns="http://www.w3.org/2000/svg" xmlns:xlink="http://www.w3.org/1999/xlink" width="25" height="25" viewBox="0 0 25 25">
  <defs>
    <clipPath id="clip-Assist.svg">
      <rect width="25" height="25"/>
    </clipPath>
  </defs>
  <g id="Assist.svg" clip-path="url(#clip-Assist.svg)">
    <path id="stat-icons_assist" d="M16.8,20.1a.131.131,0,0,1-.2-.158,6.009,6.009,0,0,0,.364-.824,3.855,3.855,0,0,1,.95-1.509,12.639,12.639,0,0,1,3.076-2.218.8.8,0,0,0,.334-.572.905.905,0,0,0-.185-.6.8.8,0,0,0-1.179-.18L17.728,15.7a.453.453,0,0,1-.453.075.543.543,0,0,1-.3-.467c-.017-.12-.052-.369,1.811-5.387.912-2.455,1.843-4.881,1.852-4.9a.669.669,0,0,0-.406-.912A.745.745,0,0,0,19.71,4.1a.684.684,0,0,0-.391.418L16.86,10.941a.685.685,0,0,1-1.277-.49L18.85,1.941a.665.665,0,0,0-.408-.905.665.665,0,0,0-.91.4L14.74,8.7a.317.317,0,0,1-.592,0l-.377-.988a.316.316,0,0,1,0-.226L15.761,2.3a.669.669,0,0,0-.406-.912.668.668,0,0,0-.912.406L13.28,4.846a.317.317,0,0,1-.592,0l-.181-.469a.314.314,0,0,1,0-.226l1.025-2.713A1.637,1.637,0,0,1,15.078.349a1.772,1.772,0,0,1,1.446.755c.019.027.037.055.054.083l.04-.1A1.629,1.629,0,0,1,18.156,0a1.776,1.776,0,0,1,1.45.755,1.642,1.642,0,0,1,.164,1.538l-.337.869a1.629,1.629,0,0,1,.521-.084,1.774,1.774,0,0,1,1.447.755,1.65,1.65,0,0,1,.159,1.547c-1.234,3.209-2.551,6.744-3.2,8.635l1.01-.755a1.824,1.824,0,0,1,1.093-.377,1.887,1.887,0,0,1,1.747,1.308,1.753,1.753,0,0,1-.65,2l-.051.038-.057.029a13.634,13.634,0,0,0-4.013,3.255ZM.464,16.435C5.451,18.981,5.585,23,10.519,23c3.651,0,6.67-3.815,5.83-6.4L11.167,2.97a.981.981,0,0,0-1.832.7l2.07,5.391a.437.437,0,1,1-.815.313L7.7,1.838a.981.981,0,0,0-1.832.7L8.753,10.08a.467.467,0,0,1-.87.334L4.452,1.461a.983.983,0,0,0-1.835.7l3.437,8.953c.208.543-.69.888-.9.345L2.565,4.705a.983.983,0,0,0-1.835.7S4.646,15.6,4.572,16.118c-.044.311-.222.393-.41.253l-2.344-1.75A1.132,1.132,0,0,0,.464,16.435Z" transform="translate(1.35 1)"/>
  </g>
</svg>
