<svg xmlns="http://www.w3.org/2000/svg" xmlns:xlink="http://www.w3.org/1999/xlink" width="25" height="25" viewBox="0 0 25 25">
  <defs>
    <clipPath id="clip-goal.svg">
      <rect width="25" height="25"/>
    </clipPath>
  </defs>
  <g id="goal.svg" clip-path="url(#clip-goal.svg)">
    <path id="stat-icons_goal" d="M23.782,17.244l-4.976-4.808,1.967-1.658L18.83,9.072,21.08,5.825,17.1,6.18,18.713,0,14.259,4.406,12.554,2.038,10.849,4.382,6.585.474,8.005,6.23l-2.629.237.947,2.582L0,10.778l6.156,1.705L4.619,15.349l3.292.047L5.448,23l5.4-5.9,1.705,5.83,1.705-5.851,2.961,1.753-.166-3.482ZM11.47,12.576h1.974a.406.406,0,0,1,.325.166l.3.417a.4.4,0,0,1,.058.36l-.571,1.759a.406.406,0,0,1-.382.277H11.737a.406.406,0,0,1-.382-.277l-.57-1.759a.4.4,0,0,1,.057-.36l.3-.417a.406.406,0,0,1,.325-.166Zm-.782-2.355a.3.3,0,0,1,.109-.338l1.481-1.076a.3.3,0,0,1,.353,0l1.481,1.076a.3.3,0,0,1,.109.338l-.566,1.741a.3.3,0,0,1-.286.208H11.541a.3.3,0,0,1-.286-.208Zm3.357,2.325a.4.4,0,0,1-.058-.36l.6-1.843a.4.4,0,0,1,.258-.258l.474-.155a.4.4,0,0,1,.36.057l1.465,1.064a.406.406,0,0,1,.146.449l-.435,1.339a.4.4,0,0,1-.382.277H14.665a.4.4,0,0,1-.325-.166Zm3.39,1.223a.109.109,0,0,1-.2-.024l-.135-.419a.115.115,0,0,1,0-.068l.639-1.966a.11.11,0,0,1,.04-.054l.359-.26a.109.109,0,0,1,.172.1,5.828,5.828,0,0,1-.877,2.7Zm-.3-6.334a.4.4,0,0,1,.343.193,5.826,5.826,0,0,1,.829,2.542.406.406,0,0,1-.164.359l-.307.227a.4.4,0,0,1-.474,0L16,9.766a.4.4,0,0,1-.146-.449l.522-1.605a.406.406,0,0,1,.382-.277ZM14.658,5.25a5.891,5.891,0,0,1,2.291,1.667.109.109,0,0,1-.083.179h-.44a.107.107,0,0,1-.064-.021L14.69,5.858a.11.11,0,0,1-.04-.054l-.135-.421a.109.109,0,0,1,.143-.132ZM14.7,6.318l1.139.827a.4.4,0,0,1,.146.448l-.561,1.722a.4.4,0,0,1-.258.258l-.474.154a.4.4,0,0,1-.36-.057L12.764,8.533a.4.4,0,0,1-.166-.325v-.5a.4.4,0,0,1,.166-.325l1.464-1.064a.4.4,0,0,1,.472,0Zm-3.991-.744.121-.365a.4.4,0,0,1,.287-.267,5.885,5.885,0,0,1,2.677,0,.4.4,0,0,1,.288.267l.118.363a.4.4,0,0,1-.146.448l-1.362.99a.4.4,0,0,1-.474,0l-1.361-.99a.4.4,0,0,1-.146-.447Zm1.382,1.809a.406.406,0,0,1,.165.325v.5a.4.4,0,0,1-.165.325l-1.565,1.14a.4.4,0,0,1-.36.057l-.477-.154a.406.406,0,0,1-.258-.258L8.872,7.6a.4.4,0,0,1,.145-.448l1.139-.829a.4.4,0,0,1,.474,0ZM7.965,6.918a5.891,5.891,0,0,1,2.291-1.667.109.109,0,0,1,.145.135l-.135.421a.11.11,0,0,1-.04.054L8.553,7.079a.107.107,0,0,1-.064.021H8.05a.109.109,0,0,1-.086-.183ZM6.606,10.169a5.835,5.835,0,0,1,.828-2.542.4.4,0,0,1,.345-.193h.38a.406.406,0,0,1,.382.277l.52,1.6a.4.4,0,0,1-.145.449l-1.365.993a.4.4,0,0,1-.474,0l-.308-.224a.4.4,0,0,1-.163-.363Zm1.2,3.157-.135.419a.109.109,0,0,1-.2.024,5.828,5.828,0,0,1-.879-2.7.109.109,0,0,1,.173-.1l.359.26a.11.11,0,0,1,.04.054l.639,1.966a.115.115,0,0,1,0,.068ZM7.62,11.5a.406.406,0,0,1,.146-.449L9.231,9.987a.4.4,0,0,1,.36-.057l.474.155a.4.4,0,0,1,.258.258l.6,1.843a.4.4,0,0,1-.058.36l-.294.406a.4.4,0,0,1-.325.166H8.437a.4.4,0,0,1-.382-.277Zm3.258,4.283-.308.224a.4.4,0,0,1-.392.045,5.889,5.889,0,0,1-2.161-1.575.4.4,0,0,1-.078-.387l.117-.359a.4.4,0,0,1,.382-.277h1.684a.4.4,0,0,1,.382.277l.524,1.6a.4.4,0,0,1-.149.449Zm3,.582a5.877,5.877,0,0,1-2.841,0A.109.109,0,0,1,11,16.171l.359-.26a.107.107,0,0,1,.064-.021h2.067a.107.107,0,0,1,.064.021l.359.26a.109.109,0,0,1-.034.195ZM16.9,14.476a5.889,5.889,0,0,1-2.161,1.573.4.4,0,0,1-.392-.045l-.308-.224a.4.4,0,0,1-.145-.449l.519-1.6a.4.4,0,0,1,.382-.277h1.684a.4.4,0,0,1,.382.277l.117.359A.4.4,0,0,1,16.9,14.476Z" transform="translate(0.5 1)"/>
  </g>
</svg>
